<?xml version="1.0" encoding="UTF-8" standalone="no"?>
<!-- Created with Inkscape (http://www.inkscape.org/) -->

<svg
   width="512"
   height="512"
   viewBox="0 0 512 512"
   version="1.1"
   id="svg1"
   xml:space="preserve"
   sodipodi:docname="buoy.svg"
   inkscape:export-filename="buoy.png"
   inkscape:export-xdpi="96"
   inkscape:export-ydpi="96"
   inkscape:version="1.3.2 (091e20ef0f, 2023-11-25)"
   xmlns:inkscape="http://www.inkscape.org/namespaces/inkscape"
   xmlns:sodipodi="http://sodipodi.sourceforge.net/DTD/sodipodi-0.dtd"
   xmlns:xlink="http://www.w3.org/1999/xlink"
   xmlns="http://www.w3.org/2000/svg"
   xmlns:svg="http://www.w3.org/2000/svg"><sodipodi:namedview
     id="namedview1"
     pagecolor="#505050"
     bordercolor="#eeeeee"
     borderopacity="1"
     inkscape:showpageshadow="0"
     inkscape:pageopacity="0"
     inkscape:pagecheckerboard="0"
     inkscape:deskcolor="#505050"
     inkscape:document-units="px"
     inkscape:zoom="0.33314015"
     inkscape:cx="69.040012"
     inkscape:cy="199.61569"
     inkscape:window-width="1366"
     inkscape:window-height="707"
     inkscape:window-x="0"
     inkscape:window-y="30"
     inkscape:window-maximized="1"
     inkscape:current-layer="layer1" /><defs
     id="defs1"><linearGradient
       id="linearGradient12"
       inkscape:collect="always"><stop
         style="stop-color:#6291dc;stop-opacity:1;"
         offset="0"
         id="stop12" /><stop
         style="stop-color:#b0caf3;stop-opacity:1;"
         offset="1"
         id="stop13" /></linearGradient><linearGradient
       id="linearGradient9"
       inkscape:collect="always"><stop
         style="stop-color:#11183a;stop-opacity:1;"
         offset="0"
         id="stop10" /><stop
         style="stop-color:#56a0c1;stop-opacity:0.90639722;"
         offset="1"
         id="stop11" /></linearGradient><inkscape:path-effect
       effect="bspline"
       id="path-effect2"
       is_visible="true"
       lpeversion="1.3"
       weight="33.333333"
       steps="2"
       helper_size="0"
       apply_no_weight="true"
       apply_with_weight="true"
       only_selected="false"
       uniform="false" /><inkscape:path-effect
       effect="spiro"
       id="path-effect1"
       is_visible="true"
       lpeversion="1" /><linearGradient
       inkscape:collect="always"
       xlink:href="#linearGradient9"
       id="linearGradient11"
       x1="33.536102"
       y1="357.36984"
       x2="477.67242"
       y2="357.36984"
       gradientUnits="userSpaceOnUse"
       gradientTransform="matrix(1.0277158,0,0,1.1144611,-6.3954358,-47.637607)" /><linearGradient
       inkscape:collect="always"
       xlink:href="#linearGradient12"
       id="linearGradient13"
       x1="27.61981"
       y1="152.64617"
       x2="482.50995"
       y2="152.64617"
       gradientUnits="userSpaceOnUse" /><filter
       id="mask-powermask-path-effect13_inverse"
       inkscape:label="filtermask-powermask-path-effect13"
       style="color-interpolation-filters:sRGB"
       height="100"
       width="100"
       x="-50"
       y="-50"><feColorMatrix
         id="mask-powermask-path-effect13_primitive1"
         values="1"
         type="saturate"
         result="fbSourceGraphic" /><feColorMatrix
         id="mask-powermask-path-effect13_primitive2"
         values="-1 0 0 0 1 0 -1 0 0 1 0 0 -1 0 1 0 0 0 1 0 "
         in="fbSourceGraphic" /></filter></defs><g
     inkscape:label="Ebene 1"
     inkscape:groupmode="layer"
     id="layer1"><path
       style="fill:url(#linearGradient11);fill-opacity:1;stroke:none;stroke-width:10.6818;stroke-dasharray:none;stroke-opacity:1"
       d="M 223.36413,482.90206 C 196.82384,478.48325 177.41225,471.77195 153.6157,458.78751 91.68116,424.99324 46.240296,360.43321 32.644389,286.91767 29.740344,271.21495 27.651065,248.68294 28.141741,238.35842 l 0.337052,-7.09205 8.205701,-3.2909 c 20.47408,-8.21111 43.177919,-12.75329 58.047956,-11.61321 16.41738,1.25873 29.24111,5.35349 58.88325,18.802 34.83359,15.80387 47.79983,19.37658 66.15845,18.22931 13.69357,-0.85574 26.00337,-4.14498 52.31133,-13.97784 39.52541,-14.77303 50.3178,-17.30136 70.2613,-16.46004 15.92024,0.6716 30.15297,4.29285 54.16324,13.78078 43.90981,17.35147 60.16738,22.23391 77.94548,23.40843 l 10.06052,0.66464 -0.65581,6.22407 c -3.70379,35.15095 -17.73255,76.69496 -35.906,106.33005 -37.51108,61.16861 -94.4198,99.99713 -161.28759,110.04565 -16.17057,2.43003 -47.15176,2.18176 -63.30249,-0.50725 z"
       id="path4" /><path
       style="fill:url(#linearGradient13);fill-opacity:1;stroke:none;stroke-width:10.3532;stroke-dasharray:none;stroke-opacity:1"
       d="m 459.52366,273.09585 c -12.05842,-2.21831 -23.78917,-5.89277 -50.03304,-15.672 -42.40765,-15.8023 -51.11299,-17.92106 -73.58212,-17.90868 -20.90206,0.0114 -25.57869,1.04948 -63.85082,14.17189 -38.68317,13.26334 -42.96357,14.2782 -59.76436,14.16996 -15.04661,-0.097 -22.15392,-1.85253 -42.83269,-10.58029 -44.36876,-18.72644 -52.99631,-21.59658 -71.404973,-23.7546 -16.616321,-1.94788 -43.216247,2.35522 -63.705121,10.30566 l -6.730726,2.61178 0.703971,-7.67951 C 30.282553,217.3921 38.580707,186.87216 48.071485,166.1296 82.132189,91.688299 149.11669,41.614353 228.10153,31.549014 c 12.28315,-1.565287 43.5534,-1.329975 56.21551,0.423028 75.85426,10.501624 140.62995,58.54456 174.73432,129.597268 15.0129,31.27768 23.45859,68.31358 23.45859,102.87 v 10.34908 l -7.40669,-0.0945 c -4.07368,-0.052 -11.08451,-0.7711 -15.5796,-1.59804 z"
       id="path11" /><circle
       style="fill:none;stroke:#4875e6;stroke-width:6.18316;stroke-dasharray:none;stroke-opacity:1"
       id="path3"
       r="226.12689"
       cy="256"
       cx="256"
       mask="none" /><path
       style="fill:none;stroke:#1e3074;stroke-width:10;stroke-dasharray:none;stroke-opacity:1"
       d="m 465.40854,115.91663 c -1.9344,-0.20911 -3.86878,-0.41822 -8.68226,-0.80404 -4.81349,-0.38582 -12.50595,-0.94835 -34.58226,-11.13958 C 400.06772,93.781774 363.60963,73.962837 326.35544,76.248915 289.10126,78.534992 251.05529,102.9257 213.38819,103.9608 175.7211,104.99591 138.4371,82.675081 112.43271,73.364061 86.428318,64.05304 71.70534,67.752722 57.159311,71.799884 42.613282,75.847046 28.2442,80.241686 20.137914,82.412679 12.031628,84.583671 10.188269,84.530985 8.3448832,84.478297"
       id="path13"
       transform="translate(18.65625,163.19626)"
       mask="none"
       inkscape:original-d="m 465.40854,115.91663 c -1.9344,-0.20911 -3.86878,-0.41822 -5.80317,-0.62733 -7.69258,-0.56253 -15.38504,-1.12506 -23.07774,-1.6876 C 400.06772,93.781774 363.60963,73.962837 327.14952,54.142808 289.10126,78.534992 251.05529,102.9257 213.00702,127.31789 175.7211,104.99591 138.4371,82.675081 101.15152,60.353303 86.428318,64.05304 71.70534,67.752721 56.982417,71.452389 42.613282,75.847046 28.2442,80.241686 13.875011,84.636359 12.031628,84.583672 10.188269,84.530984 8.3448832,84.478297"
       inkscape:path-effect="#path-effect2"
       sodipodi:nodetypes="ccccccccc" /><g
       id="g1"
       transform="matrix(0.62290902,0,0,0.62290902,100.26138,78.781416)">
	<path
   class="st0"
   d="m 301.673,3.701 -10.163,43.007 -19.593,82.905 -56.362,238.489 c -18.7,-17.495 -45.789,-28.356 -75.824,-28.035 -55.816,0.595 -100.654,39.565 -100.148,87.041 0.506,47.476 46.165,85.481 101.982,84.886 44.004,-0.469 81.178,-24.792 94.696,-58.328 l 0.273,0.064 0.464,-1.965 c 2.174,-5.834 3.64,-11.93 4.306,-18.219 L 317.0891,123.94758 444.12324,156.23972 471.98602,47.507246 C 415.01942,32.749714 357.85689,17.291074 301.673,3.701 Z"
   id="path1"
   sodipodi:nodetypes="cccccsscccccccc" />
</g><ellipse
       style="fill:#262626;fill-opacity:1;stroke-width:13.5502"
       id="path2"
       cx="177.5226"
       cy="318.42682"
       rx="31.972404"
       ry="23.488567" /></g><style
     type="text/css"
     id="style1">
	.st0{fill:#000000;}
</style><style
     type="text/css"
     id="style1-3">
	.st0{fill:#000000;}
</style></svg>
