<?xml version="1.0" encoding="UTF-8" standalone="no"?>
<!-- Created with Inkscape (http://www.inkscape.org/) -->

<svg
   width="512"
   height="512"
   viewBox="0 0 512 512"
   version="1.1"
   id="svg1"
   xml:space="preserve"
   sodipodi:docname="symbolic.svg"
   inkscape:export-filename="buoy.png"
   inkscape:export-xdpi="96"
   inkscape:export-ydpi="96"
   inkscape:version="1.4 (e7c3feb100, 2024-10-09)"
   xmlns:inkscape="http://www.inkscape.org/namespaces/inkscape"
   xmlns:sodipodi="http://sodipodi.sourceforge.net/DTD/sodipodi-0.dtd"
   xmlns:xlink="http://www.w3.org/1999/xlink"
   xmlns="http://www.w3.org/2000/svg"
   xmlns:svg="http://www.w3.org/2000/svg"><sodipodi:namedview
     id="namedview1"
     pagecolor="#505050"
     bordercolor="#eeeeee"
     borderopacity="1"
     inkscape:showpageshadow="0"
     inkscape:pageopacity="0"
     inkscape:pagecheckerboard="0"
     inkscape:deskcolor="#505050"
     inkscape:document-units="px"
     inkscape:zoom="1.3325606"
     inkscape:cx="266.77961"
     inkscape:cy="251.3957"
     inkscape:window-width="1920"
     inkscape:window-height="1019"
     inkscape:window-x="0"
     inkscape:window-y="30"
     inkscape:window-maximized="1"
     inkscape:current-layer="layer1" /><defs
     id="defs1"><linearGradient
       id="linearGradient12"
       inkscape:collect="always"><stop
         style="stop-color:#6291dc;stop-opacity:1;"
         offset="0"
         id="stop12" /><stop
         style="stop-color:#b0caf3;stop-opacity:1;"
         offset="0.5"
         id="stop2" /><stop
         style="stop-color:#6291dc;stop-opacity:1;"
         offset="1"
         id="stop13" /></linearGradient><linearGradient
       id="linearGradient9"
       inkscape:collect="always"><stop
         style="stop-color:#2e3780;stop-opacity:1;"
         offset="0"
         id="stop10" /><stop
         style="stop-color:#2e5e76;stop-opacity:1;"
         offset="0.5"
         id="stop1" /><stop
         style="stop-color:#2e3780;stop-opacity:1;"
         offset="1"
         id="stop11" /></linearGradient><inkscape:path-effect
       effect="bspline"
       id="path-effect2"
       is_visible="true"
       lpeversion="1.3"
       weight="33.333333"
       steps="2"
       helper_size="0"
       apply_no_weight="true"
       apply_with_weight="true"
       only_selected="false"
       uniform="false" /><inkscape:path-effect
       effect="spiro"
       id="path-effect1"
       is_visible="true"
       lpeversion="1" /><linearGradient
       inkscape:collect="always"
       xlink:href="#linearGradient9"
       id="linearGradient11"
       x1="33.536102"
       y1="357.36984"
       x2="477.67242"
       y2="357.36984"
       gradientUnits="userSpaceOnUse"
       gradientTransform="matrix(1.0582401,0,0,1.1475619,-14.188922,-56.656027)" /><linearGradient
       inkscape:collect="always"
       xlink:href="#linearGradient12"
       id="linearGradient13"
       x1="27.61981"
       y1="152.64617"
       x2="482.50995"
       y2="152.64617"
       gradientUnits="userSpaceOnUse"
       gradientTransform="matrix(1.0297011,0,0,1.0297011,-7.6035331,-7.6035257)" /><filter
       id="mask-powermask-path-effect13_inverse"
       inkscape:label="filtermask-powermask-path-effect13"
       style="color-interpolation-filters:sRGB"
       height="100"
       width="100"
       x="-50"
       y="-50"><feColorMatrix
         id="mask-powermask-path-effect13_primitive1"
         values="1"
         type="saturate"
         result="fbSourceGraphic" /><feColorMatrix
         id="mask-powermask-path-effect13_primitive2"
         values="-1 0 0 0 1 0 -1 0 0 1 0 0 -1 0 1 0 0 0 1 0 "
         in="fbSourceGraphic" /></filter></defs><g
     inkscape:label="Ebene 1"
     inkscape:groupmode="layer"
     id="layer1"><path
       style="fill:url(#linearGradient11);fill-opacity:1;stroke:none;stroke-width:10.999;stroke-dasharray:none;stroke-opacity:1"
       d="M 222.39481,489.64134 C 195.06623,485.0913 175.07808,478.18067 150.57476,464.81058 86.800674,430.01257 40.010156,363.53501 26.010433,287.83597 23.020135,271.66686 20.868801,248.46561 21.374051,237.83445 l 0.347063,-7.3027 8.449422,-3.38866 c 21.082185,-8.45496 44.460358,-13.13206 59.772055,-11.95812 16.904989,1.29612 30.109609,5.5125 60.632169,19.36045 35.86819,16.27325 49.21953,19.95208 68.12342,18.77075 14.10029,-0.88115 26.77571,-4.26809 53.86506,-14.393 40.69936,-15.21182 51.8123,-17.81524 72.34815,-16.94892 16.3931,0.69155 31.04856,4.42034 55.77196,14.19007 45.21399,17.86683 61.95441,22.89428 80.26056,24.10368 l 10.35934,0.68439 -0.6753,6.40893 c -3.8138,36.19498 -18.25922,78.97291 -36.97245,109.4882 -38.6252,62.98539 -97.2242,102.96716 -166.07804,113.31416 -16.65085,2.5022 -48.55223,2.24653 -65.18265,-0.52234 z"
       id="path4" /><path
       style="fill:url(#linearGradient13);fill-opacity:1;stroke:none;stroke-width:10.6608;stroke-dasharray:none;stroke-opacity:1"
       d="m 465.56858,273.60361 c -12.41657,-2.28417 -24.49575,-6.06779 -51.5191,-16.13746 -43.6672,-16.27166 -52.6311,-18.45335 -75.76761,-18.4406 -21.52287,0.0117 -26.33839,1.08067 -65.74726,14.59282 -39.83209,13.65728 -44.23964,14.70229 -61.53943,14.59082 -15.49351,-0.0999 -22.81193,-1.90755 -44.10488,-10.89453 -45.68658,-19.28264 -54.57038,-22.23802 -73.525799,-24.46015 -17.109847,-2.00573 -44.499825,2.42518 -65.597246,10.61176 l -6.930637,2.68935 0.724879,-7.90761 C 23.578448,216.24539 32.123067,184.81897 41.895733,163.46032 76.968086,86.808032 145.94212,35.246824 227.2729,24.882532 c 12.64798,-1.611778 44.84701,-1.369477 57.8852,0.435593 78.10722,10.813536 144.80685,60.28341 179.92416,133.446465 15.4588,32.20668 24.15532,70.3426 24.15532,105.92538 v 10.65644 l -7.62666,-0.0973 c -4.19468,-0.0535 -11.41374,-0.794 -16.04234,-1.64551 z"
       id="path11" /><path
       style="fill:none;stroke:#1e3074;stroke-width:10;stroke-dasharray:none;stroke-opacity:1"
       d="m 465.40854,115.91663 c -1.9344,-0.20911 -3.86878,-0.41822 -8.68226,-0.80404 -4.81349,-0.38582 -12.50595,-0.94835 -34.58226,-11.13958 C 400.06772,93.781775 363.60963,73.96284 326.35544,76.248915 289.10126,78.53499 251.05529,102.9257 213.3882,103.96081 175.7211,104.99591 138.4371,82.67508 112.43271,73.36406 86.428318,64.05304 71.70534,67.752722 57.159311,71.799884 42.613282,75.847046 28.2442,80.241686 20.137914,82.412679 12.031628,84.583671 10.188269,84.530985 8.3448832,84.478297"
       id="path13"
       transform="matrix(1.0297013,0,0,1.0297013,11.606828,160.43987)"
       mask="none"
       inkscape:original-d="m 465.40854,115.91663 c -1.9344,-0.20911 -3.86878,-0.41822 -5.80317,-0.62733 -7.69258,-0.56253 -15.38504,-1.12506 -23.07774,-1.6876 C 400.06772,93.781774 363.60963,73.962837 327.14952,54.142808 289.10126,78.534992 251.05529,102.9257 213.00702,127.31789 175.7211,104.99591 138.4371,82.675081 101.15152,60.353303 86.428318,64.05304 71.70534,67.752721 56.982417,71.452389 42.613282,75.847046 28.2442,80.241686 13.875011,84.636359 12.031628,84.583672 10.188269,84.530984 8.3448832,84.478297"
       inkscape:path-effect="#path-effect2"
       sodipodi:nodetypes="ccccccccc" /><circle
       style="fill:none;stroke:#4875e6;stroke-width:11.8143;stroke-dasharray:none;stroke-opacity:1"
       id="path3"
       r="232.84317"
       cy="256.00003"
       cx="256"
       mask="none" /><g
       id="g1"
       transform="matrix(0.64141024,0,0,0.64141024,95.635739,73.517799)">
	<path
   class="st0"
   d="m 301.673,3.701 -10.163,43.007 -19.593,82.905 -56.362,238.489 c -18.7,-17.495 -45.789,-28.356 -75.824,-28.035 -55.816,0.595 -100.654,39.565 -100.148,87.041 0.506,47.476 46.165,85.481 101.982,84.886 44.004,-0.469 81.178,-24.792 94.696,-58.328 l 0.273,0.064 0.464,-1.965 c 2.174,-5.834 3.64,-11.93 4.306,-18.219 L 317.0891,123.94758 444.12324,156.23972 471.98602,47.507246 C 415.01942,32.749714 357.85689,17.291074 301.673,3.701 Z"
   id="path1"
   sodipodi:nodetypes="cccccsscccccccc" />
</g><ellipse
       style="fill:#585858;fill-opacity:1;stroke-width:13.9525"
       id="path2"
       cx="175.1917"
       cy="320.28098"
       rx="32.922024"
       ry="24.186209" /></g><style
     type="text/css"
     id="style1">
	.st0{fill:#000000;}
</style><style
     type="text/css"
     id="style1-3">
	.st0{fill:#000000;}
</style></svg>
